# xmcd
#
# Track frame offsets:
#	150
#	22210
#	45920
#	74118
#	90000
#	114285
#	133148
#	159593
#	182275
#	217753
#	244713
#
# Disc length: 3677 seconds
#
# Revision: 0
# Processed by: cddbd v1.5.2PL0 Copyright (c) Steve Scherf et al.
# Submitted via: audiograbber 1.83.01
#
DISCID=870e5b0b
DTITLE=Coverdale - Page - Coverdale - Page [CD-R]
DYEAR=1993
DGENRE=Rock
TTITLE0=Shake My Tree
TTITLE1=Waiting On You
TTITLE2=Take Me For A Little While
TTITLE3=Pride And Joy
TTITLE4=Over Now
TTITLE5=Feeling Hot
TTITLE6=Easy Does It
TTITLE7=Take A Look At Yourself
TTITLE8=Don't Leave Me This Way
TTITLE9=Absolution Blues
TTITLE10=Whisper A Prayer For The Dying
EXTD=
EXTT0=
EXTT1=
EXTT2=
EXTT3=
EXTT4=
EXTT5=
EXTT6=
EXTT7=
EXTT8=
EXTT9=
EXTT10=
PLAYORDER=
